<svg width="139" height="206" viewBox="0 0 139 206" fill="none" xmlns="http://www.w3.org/2000/svg">
<path d="M137.9 6.6852C137.35 4.56294 134.051 1.23853 131.89 0.557102C129.533 -0.124396 8.98222 -0.167016 6.62441 0.512814C4.26658 1.23268 1.16129 4.51479 0.571048 6.91692C-0.0978928 9.63934 -0.163576 195.421 0.50344 198.143C1.09198 200.546 4.19496 203.83 6.55227 204.552C8.9096 205.233 129.46 205.276 131.818 204.596C134.176 203.876 137.281 200.594 137.871 198.192C138.501 195.67 138.527 9.08777 137.9 6.6852ZM114.881 99.3675L97.238 99.3613L96.5712 96.1579C93.8645 83.3044 82.4336 74.0113 69.2312 74.0066C56.0288 74.002 44.5913 83.287 41.8756 96.1386L41.2065 99.3415L23.564 99.3352L5.96079 99.329L6.05552 53.6445L6.18955 7.95993L7.29009 6.99938L8.39063 6.03883L18.371 6.04236L28.3514 6.04589L28.4642 20.3799L28.577 34.6739L29.6371 36.9565C31.0113 39.9599 33.7216 42.6035 36.4717 43.6454C38.5932 44.487 39.3005 44.4873 69.2416 44.4978C99.1828 44.5084 99.8901 44.5087 102.012 43.6686C104.763 42.6286 107.475 39.9869 108.851 36.9845L109.913 34.7027L110.036 20.4088L110.159 6.07481L120.061 6.07831C130.709 6.08208 131.338 6.20242 132.123 8.24468C132.319 8.68518 132.469 29.3854 132.46 54.2497L132.484 99.3737L114.881 99.3675ZM131.152 198.11L130.052 199.07L120.071 199.067L110.091 199.063L109.978 184.769L109.865 170.435L108.805 168.152C107.431 165.149 104.721 162.506 101.971 161.464C99.849 160.622 99.1417 160.622 69.2006 160.611C39.2595 160.601 38.5522 160.6 36.4301 161.44C33.6792 162.48 30.9671 165.122 29.5908 168.124L28.529 170.406L28.4061 184.74L28.2832 199.034L18.3028 199.031L8.3224 199.027L7.22254 198.066L6.12268 197.104L6.02096 151.42L5.95852 105.735L23.5617 105.741L41.2042 105.748L41.871 108.951C44.5777 121.805 56.0086 131.098 69.211 131.102C82.4134 131.107 93.8509 121.822 96.5667 108.97L97.2358 105.768L114.878 105.774L132.481 105.78L132.387 151.465L132.253 197.149L131.152 198.11ZM103.155 35.3009C102.683 36.1015 101.582 37.1421 100.757 37.6223L99.1849 38.5026L69.2438 38.492L39.3026 38.4814L37.7312 37.6C36.9062 37.1192 35.8064 36.0778 35.3352 35.2769C34.5105 33.9153 34.4714 33.4748 34.3583 19.9816L34.2453 6.04797L39.1569 6.04971L44.0685 6.05144L44.1832 14.9802C44.2977 24.7498 44.4939 25.5506 46.9686 27.4333C48.0685 28.2745 48.3436 28.2746 69.2474 28.282C90.1512 28.2894 90.4262 28.2895 91.5267 27.4491C94.0028 25.5681 94.1996 24.7674 94.3209 14.9979L94.4419 6.06925L99.3535 6.07099L104.265 6.07273L104.142 20.0063C104.02 33.4994 103.98 33.9398 103.155 35.3009ZM99.2853 199.059L94.3737 199.058L94.259 190.169C94.1446 180.359 93.9484 179.558 91.4736 177.676C90.3737 176.834 90.0986 176.834 69.1949 176.827C48.2911 176.82 48.016 176.819 46.9155 177.66C44.4394 179.541 44.2427 180.342 44.1213 190.151L44.0003 199.04L39.0887 199.038L34.1771 199.036L34.2999 185.143C34.4225 171.61 34.462 171.169 35.2876 169.808C35.7594 169.008 36.86 167.967 37.6853 167.487L39.2573 166.606L69.1985 166.617L99.1396 166.628L100.672 167.509C102.361 168.471 103.382 169.792 103.814 171.634C103.971 172.275 104.086 178.721 104.123 185.968L104.158 199.061L99.2853 199.059ZM69.2222 99.3514L47.2576 99.3436L47.4938 98.0624C48.9504 90.0952 55.4362 83.1307 63.4921 80.7712C66.5179 79.8514 71.9403 79.8533 74.9656 80.7753C82.4304 82.94 88.6758 89.2684 90.5985 96.5962C90.9124 97.7975 91.1871 98.8787 91.187 99.0789C91.2263 99.239 81.3244 99.3556 69.2222 99.3514ZM89.965 110.409C88.8637 113.452 86.5442 116.895 83.95 119.296C77.1894 125.58 67.4051 126.858 58.9586 122.53C53.5372 119.766 48.6279 113.118 47.4906 107.071L47.2553 105.75L69.22 105.758L91.224 105.765L90.9485 107.087C90.8303 107.767 90.3976 109.289 89.965 110.409ZM69.2494 22.4764L49.9959 22.4696L49.9988 14.2615L50.0017 6.05354L69.2552 6.06035L88.5087 6.06716L88.5058 14.2752L88.5029 22.4832L69.2494 22.4764ZM69.187 199.049L49.9335 199.042L49.9364 190.834L49.9393 182.626L69.1928 182.633L88.4463 182.639L88.4434 190.847L88.4405 199.055L69.187 199.049Z" fill="white"/>
<path d="M67.0746 60.8404C64.3919 61.0155 62.4284 61.2907 60.121 61.8098C56.2378 62.6854 52.4421 64.1801 48.909 66.2314C47.9397 66.788 45.8637 68.1514 45.4822 68.4829C44.9757 68.9144 44.6005 69.2271 43.8439 69.84C41.7178 71.5786 39.5729 73.755 37.8658 75.9064C37.5594 76.2879 37.253 76.6319 37.1905 76.6632C37.0529 76.7257 36.4714 77.5075 35.7085 78.6582C31.1624 85.4689 28.8174 93.5303 29.0113 101.698C29.0488 103.105 29.0613 103.318 29.1739 103.543C29.2614 103.731 29.3177 104.043 29.3677 104.675C29.4615 105.863 29.6929 107.421 29.9993 108.928C30.1494 109.678 30.2369 110.254 30.2181 110.372C30.1744 110.585 30.6058 112.186 31.0998 113.643C32.7069 118.421 35.3083 122.987 38.5974 126.827C38.8476 127.121 39.0414 127.39 39.0227 127.434C39.0102 127.471 39.0664 127.546 39.1477 127.596C39.2353 127.646 39.9732 128.353 40.7923 129.16C42.8121 131.161 44.4817 132.537 46.6391 134C48.0586 134.957 49.9595 136.095 50.1909 136.127C50.2409 136.133 50.7975 136.396 51.4228 136.708C54.6432 138.316 57.9074 139.416 61.5405 140.129C62.9975 140.417 63.9605 140.548 65.8865 140.742C66.9432 140.848 71.0891 140.848 72.2335 140.742C75.21 140.467 77.3548 140.079 79.9562 139.348C92.8941 135.689 103.193 125.651 107.22 112.774C108.096 109.972 108.608 107.321 108.921 103.987C109.04 102.724 109.021 98.7337 108.89 97.3578C108.615 94.5498 108.127 91.9481 107.37 89.3526C106.989 88.0455 106.295 86.0255 105.932 85.1749C105.544 84.2556 104.412 82.0792 103.606 80.6908C99.091 72.9358 92.0687 66.8881 83.7706 63.6047C80.1688 62.1788 76.7483 61.3595 72.6399 60.9593C71.7332 60.8654 67.8875 60.7841 67.0746 60.8404Z" fill="white"/>
<path d="M57.7274 70.2257L56.8446 69.7559L58.397 70.9684L57.7274 70.2257ZM61.6332 66.7558L62.0151 67.68L62.0151 67.68L61.6332 66.7558ZM66.9637 66.0135L67.1147 65.025L67.1035 65.0233L67.0923 65.0218L66.9637 66.0135ZM71.8088 68.2113L71.1822 68.9906L71.1822 68.9906L71.8088 68.2113ZM74.6364 72.662L73.7916 73.1971L75.6126 72.4451L74.6364 72.662ZM71.0331 68.7212L70.4002 69.4955L70.4134 69.5062L70.4269 69.5165L71.0331 68.7212ZM66.8555 66.6985L67.0148 65.7112L66.999 65.7087L66.9832 65.7067L66.8555 66.6985ZM62.1606 67.4648L62.5333 68.3928L62.5381 68.3908L62.1606 67.4648ZM80.4654 79.5403L79.7032 78.8931L80.9701 80.4036L80.4654 79.5403ZM83.7542 77.3353L83.4287 76.3898L83.4204 76.3927L83.4122 76.3957L83.7542 77.3353ZM87.7051 77.23L88.0295 76.284L88.0271 76.2832L87.7051 77.23ZM90.7066 79.6576L89.8787 80.2185L89.8787 80.2185L90.7066 79.6576ZM92.0023 83.4213L91.0709 83.7851L93.0018 83.3897L92.0023 83.4213ZM89.9101 80.5187L89.2378 81.259L89.2567 81.2762L89.2765 81.2924L89.9101 80.5187ZM87.1516 78.7968L87.4918 77.8564L87.4705 77.8487L87.4489 77.842L87.1516 78.7968ZM83.8922 78.4415L83.8389 77.4428L83.8269 77.4436L83.8922 78.4415ZM70.6541 76.9677L69.8341 76.3953L71.2449 77.7745L70.6541 76.9677ZM73.002 75.0867L73.431 75.99L73.4446 75.9835L73.4579 75.9767L73.002 75.0867ZM78.2747 76.4692L77.4407 77.021L77.449 77.0335L77.4576 77.0458L78.2747 76.4692ZM79.3975 79.2603L78.4869 79.6734L80.3929 79.1639L79.3975 79.2603ZM77.7135 77.2494L77.167 78.0869L77.167 78.0869L77.7135 77.2494ZM73.1082 76.0419L73.1734 77.0397L73.1735 77.0397L73.1082 76.0419ZM58.9173 77.3856L57.961 77.0935L59.7257 77.9743L58.9173 77.3856ZM60.8253 74.4619L60.1611 73.7143L60.1536 73.721L60.8253 74.4619ZM67.2905 74.0171L66.7167 74.8361L66.7167 74.8361L67.2905 74.0171ZM69.5862 76.6877L68.8614 77.3767L70.5026 76.2874L69.5862 76.6877ZM66.877 75.05L66.5797 76.0048L66.6014 76.0116L66.6234 76.0173L66.877 75.05ZM64.053 74.6662L64.0036 73.6674L63.9956 73.6678L63.9877 73.6684L64.053 74.6662ZM61.3002 75.3711L60.9065 74.4518L60.8937 74.4573L60.8811 74.4632L61.3002 75.3711ZM97.0781 84.4669L97.764 83.7391L96.1877 84.9219L97.0781 84.4669ZM99.3686 89.062L98.3786 89.2037L98.38 89.2132L99.3686 89.062ZM98.7235 94.2428L97.8075 93.8414L97.8031 93.8517L97.7988 93.862L98.7235 94.2428ZM95.4469 98.3056L96.025 99.1216L96.0314 99.1171L96.0377 99.1125L95.4469 98.3056ZM90.5595 99.8061L90.275 98.8474L90.516 100.805L90.5595 99.8061ZM95.1722 97.449L94.5753 96.6466L94.567 96.6528L94.5588 96.6591L95.1722 97.449ZM98.091 93.9343L97.1786 93.5251L97.1719 93.54L97.1657 93.5551L98.091 93.9343ZM98.5611 89.421L97.5676 89.5352L97.5696 89.5521L97.5721 89.5689L98.5611 89.421ZM91.7223 84.4892L92.5164 83.8814L90.7691 84.7913L91.7223 84.4892ZM92.8244 87.6315L91.8273 87.7082L91.8284 87.7205L92.8244 87.6315ZM92.1354 90.8034L92.949 91.3848L92.9653 91.362L92.9802 91.3384L92.1354 90.8034ZM89.4363 92.6637L89.7226 93.6218L89.7375 93.6174L89.7523 93.6125L89.4363 92.6637ZM86.1211 92.7931L86.0289 91.7973L85.8674 93.7604L86.1211 92.7931ZM88.8771 91.8037L89.4679 92.6106L89.4798 92.6019L89.4914 92.5928L88.8771 91.8037ZM90.7403 89.867L91.568 90.4281L91.5729 90.4208L91.5777 90.4135L90.7403 89.867ZM53.9139 90.4828L53.2657 91.2443L54.7772 89.9782L53.9139 90.4828ZM51.7122 86.9096L52.6749 86.6392L52.6749 86.6392L51.7122 86.9096ZM51.8103 82.7267L50.8742 82.3748L50.873 82.378L51.8103 82.7267ZM54.4732 79.6443L54.996 80.4967L55.0047 80.4913L55.0133 80.4858L54.4732 79.6443ZM58.5038 78.4185L58.8294 79.364L58.5234 77.4187L58.5038 78.4185ZM55.2676 80.4232L55.9753 81.1297L55.9753 81.1297L55.2676 80.4232ZM53.3596 83.3469L54.286 83.7235L54.2948 83.702L54.3025 83.68L53.3596 83.3469ZM52.8183 86.7716L53.8178 86.74L53.8178 86.74L52.8183 86.7716ZM73.7067 89.538L74.7063 89.5084L72.755 89.2311L73.7067 89.538ZM73.0242 92.141L72.1372 91.6793L72.129 91.6949L72.1214 91.7109L73.0242 92.141ZM71.2628 93.9618L71.6186 94.8963L71.64 94.8882L71.661 94.8791L71.2628 93.9618ZM68.72 93.8657L68.3799 94.8061L68.3799 94.8061L68.72 93.8657ZM66.4605 92.4173L66.9768 91.5609L65.7129 93.0814L66.4605 92.4173ZM68.6138 92.9106L68.4901 91.9182L68.49 91.9182L68.6138 92.9106ZM70.6784 92.3819L70.3146 91.4504L70.3077 91.4531L70.3009 91.4559L70.6784 92.3819ZM72.43 91.4145L73.0108 92.2286L73.0267 92.2173L73.0421 92.2053L72.43 91.4145ZM72.1972 94.2068L71.4895 93.5003L72.6284 95.1091L72.1972 94.2068ZM75.6162 92.3213L75.8643 93.2901L77.1486 92.9612L76.4796 91.8167L75.6162 92.3213ZM74.7746 89.818L75.6825 89.3989L73.7781 89.9008L74.7746 89.818ZM76.6556 92.1659L76.0415 92.955L76.3684 93.2094L76.7794 93.1582L76.6556 92.1659ZM80.0311 92.6229L79.6219 93.5354L79.6333 93.5404L80.0311 92.6229ZM81.6089 93.6786L80.927 94.4101L81.243 94.7047L81.6742 94.6765L81.6089 93.6786ZM83.3365 93.347L83.0682 92.3836L83.0496 92.3888L83.0312 92.3947L83.3365 93.347ZM85.1199 92.5306L85.9283 93.1192L84.5748 91.6922L85.1199 92.5306ZM82.4351 94.6086L82.0506 93.6854L80.8592 94.1817L81.6372 95.2114L82.4351 94.6086ZM83.9848 99.5802L83.0206 99.8453L84.982 99.6544L83.9848 99.5802ZM82.7252 97.0386L81.9 97.6035L81.92 97.6326L81.9419 97.6603L82.7252 97.0386ZM80.9569 95.077L81.5983 94.3097L81.226 93.9986L80.7512 94.0984L80.9569 95.077ZM76.4074 93.3847L77.1699 92.7377L76.8932 92.4117L76.4664 92.3865L76.4074 93.3847ZM74.2968 93.5447L74.4447 94.5337L74.4738 94.5293L74.5025 94.5233L74.2968 93.5447ZM51.5163 99.6267L50.9698 100.464L52.3186 99.0298L51.5163 99.6267ZM49.6495 97.4966L48.7441 97.921L48.7569 97.9483L48.7713 97.9749L49.6495 97.4966ZM49.2959 94.7646L50.2632 95.0182L50.2699 94.9928L50.2752 94.967L49.2959 94.7646ZM50.8603 92.6068L51.4178 93.437L51.4296 93.4291L51.4411 93.4209L50.8603 92.6068ZM53.5004 91.5157L53.9066 92.4295L53.3862 90.5223L53.5004 91.5157ZM51.658 93.1013L50.8016 92.585L50.7874 92.6086L50.7745 92.6328L51.658 93.1013ZM50.8977 95.1846L51.8651 95.4382L51.8735 95.406L51.8798 95.3733L50.8977 95.1846ZM50.6715 97.4079L49.6719 97.4375L49.6721 97.4459L49.6725 97.4543L50.6715 97.4079ZM84.695 100.408L84.6148 99.4116L84.3956 101.363L84.695 100.408ZM87.6492 101.112L87.1685 101.989L87.1768 101.993L87.6492 101.112ZM89.7829 103.312L88.8605 103.698L88.8605 103.698L89.7829 103.312ZM89.7821 106.308L88.8381 105.978L88.8315 105.996L88.8257 106.015L89.7821 106.308ZM88.2287 108.968L87.3259 108.537L88.9218 109.688L88.2287 108.968ZM88.7777 106.33L87.7798 106.395L87.7798 106.395L88.7777 106.33ZM88.2698 103.914L89.2044 103.558L89.198 103.541L89.1912 103.525L88.2698 103.914ZM86.9545 101.857L87.7115 101.203L87.7115 101.203L86.9545 101.857ZM64.9118 112.198L63.9122 112.169L65.8452 112.557L64.9118 112.198ZM65.3526 110.245L66.281 110.617L66.2836 110.61L65.3526 110.245ZM66.545 108.418L67.2359 109.141L68.079 108.335L67.1541 107.625L66.545 108.418ZM64.9342 105.856L63.9636 106.096L63.9677 106.113L63.9724 106.129L64.9342 105.856ZM64.8858 102.776L65.8801 102.668L63.9185 102.522L64.8858 102.776ZM65.8259 105.447L65.0007 106.012L65.0207 106.041L65.0426 106.069L65.8259 105.447ZM67.7135 107.226L68.3729 106.475L68.3261 106.433L68.2746 106.399L67.7135 107.226ZM68.2616 107.584L67.8232 108.483L68.0824 108.609L68.369 108.578L68.2616 107.584ZM71.4479 108.491L70.9013 109.328L71.1805 109.51L71.5131 109.489L71.4479 108.491ZM72.856 108.289L73.4367 109.103L72.6503 107.311L72.856 108.289ZM71.8626 108.814L71.5067 107.879L69.6715 108.578L71.3161 109.651L71.8626 108.814ZM72.5585 109.424L72.1011 110.313L73.3061 108.76L72.5585 109.424ZM71.3921 108.976L71.6457 108.008L71.3465 107.93L71.0552 108.034L71.3921 108.976ZM68.3931 109.259L68.1395 110.226L68.1833 110.238L68.2281 110.245L68.3931 109.259ZM68.1754 109.273L67.9696 108.295L67.8814 108.313L67.7979 108.347L68.1754 109.273ZM66.2552 110.339L65.6806 109.521L65.6616 109.534L65.6432 109.548L66.2552 110.339ZM55.3573 106.198L54.7495 105.404L55.6594 107.151L55.3573 106.198ZM56.7052 105.41L57.0989 106.329L59.4658 105.315L57.0352 104.466L56.7052 105.41ZM53.8515 103.235L53.0427 103.823L53.0491 103.832L53.0556 103.84L53.8515 103.235ZM52.5842 99.9067L53.4855 99.4735L51.5863 99.972L52.5842 99.9067ZM54.6797 102.525L54.0787 103.324L54.0848 103.329L54.091 103.333L54.6797 102.525ZM60.5532 104.065L60.4369 103.072L60.4293 103.073L60.4217 103.074L60.5532 104.065ZM63.7304 102.829L64.5615 103.385L63.1577 102.01L63.7304 102.829ZM60.6911 105.171L60.3317 104.238L57.4385 105.352L60.4375 106.138L60.6911 105.171ZM61.724 105.585L62.259 104.74L62.2323 104.723L62.2047 104.708L61.724 105.585ZM63.6685 108.234L64.6173 107.918L64.6173 107.918L63.6685 108.234ZM63.9314 111.585L62.9424 111.732L64.9088 111.796L63.9314 111.585ZM62.7911 108.86L62.002 109.475L62.002 109.475L62.7911 108.86ZM60.8543 106.997L61.4154 106.169L61.3871 106.15L61.3576 106.133L60.8543 106.997ZM58.2545 106.03L58.464 105.052L58.4619 105.052L58.2545 106.03ZM88.2331 110.039L88.9396 109.331L87.3126 110.429L88.2331 110.039ZM90.0169 113.574L89.0354 113.766L89.0383 113.779L90.0169 113.574ZM86.8794 120.098L86.4333 119.203L86.4239 119.208L86.4145 119.213L86.8794 120.098ZM83.1047 120.892L82.867 119.921L82.9956 121.886L83.1047 120.892ZM86.1693 119.27L85.4893 118.537L85.4803 118.545L86.1693 119.27ZM88.1407 116.648L87.2379 116.218L87.2344 116.226L88.1407 116.648ZM43.7877 116.86L43.4131 117.787L44.4721 116.131L43.7877 116.86ZM39.8792 113.267L38.9921 113.729L38.9957 113.736L38.9995 113.743L39.8792 113.267ZM38.6522 107.881L39.6507 107.935L39.6514 107.923L39.6517 107.911L38.6522 107.881ZM40.3684 102.696L41.1977 103.255L41.2019 103.248L40.3684 102.696ZM44.6572 99.3975L45.2633 100.193L44.3646 98.4413L44.6572 99.3975ZM40.9626 103.422L41.7957 103.975L41.8023 103.965L41.8086 103.955L40.9626 103.422ZM39.3546 107.922L40.3525 107.988L40.3535 107.972L40.354 107.957L39.3546 107.922ZM40.4896 112.571L39.601 113.03L39.6048 113.037L39.6088 113.045L40.4896 112.571ZM46.2597 108.52L45.2609 108.471L47.1952 108.874L46.2597 108.52ZM47.1108 105.819L46.2592 105.295L46.2516 105.307L46.2443 105.32L47.1108 105.819ZM49.2234 104.019L49.521 104.973L49.5418 104.967L49.5624 104.96L49.2234 104.019ZM51.9489 104.234L51.5333 105.144L51.555 105.154L51.5772 105.162L51.9489 104.234ZM54.2894 105.918L53.7429 106.755L55.0917 105.321L54.2894 105.918ZM51.9709 105.239L51.9412 104.239L51.9412 104.239L51.9709 105.239ZM49.741 105.581L49.4501 104.624L49.4501 104.624L49.741 105.581ZM47.6874 106.612L47.1181 105.79L47.1128 105.794L47.6874 106.612ZM53.715 119.534L54.0126 120.489L53.7604 118.535L53.715 119.534ZM49.6656 119.471L49.3819 120.43L49.3828 120.43L49.6656 119.471ZM45.2492 113.463L44.25 113.422L44.2493 113.44L44.2492 113.459L45.2492 113.463ZM46.3977 109.626L47.365 109.88L45.5666 109.07L46.3977 109.626ZM46.3728 113.258L47.3397 113.003L47.3397 113.003L46.3728 113.258ZM47.7276 116.252L48.5418 115.672L48.5383 115.667L47.7276 116.252ZM50.1951 118.54L49.6587 119.384L49.6742 119.394L49.6901 119.403L50.1951 118.54ZM82.2098 121.585L83.2098 121.584L81.2744 121.231L82.2098 121.585ZM81.408 124.37L80.5361 123.881L80.5283 123.894L80.521 123.909L81.408 124.37ZM79.4289 126.205L79.0899 125.265L79.0705 125.271L79.0514 125.279L79.4289 126.205ZM76.6509 126.19L76.2743 127.117L76.2942 127.125L76.3144 127.132L76.6509 126.19ZM74.2929 124.573L74.7962 123.709L73.5359 125.227L74.2929 124.573ZM76.5622 125.168L76.6086 126.167L76.6268 126.166L76.6449 126.165L76.5622 125.168ZM78.827 124.692L78.4849 123.752L78.4849 123.752L78.827 124.692ZM80.7646 123.56L80.1607 122.762L80.1425 122.776L80.1249 122.791L80.7646 123.56ZM86.0341 125.227L87.0299 125.318L85.1333 124.792L86.0341 125.227ZM78.5115 133.241L78.2747 132.269L78.2656 132.271L78.5115 133.241ZM72.6393 133.056L72.9356 132.101L72.925 132.098L72.9143 132.095L72.6393 133.056ZM68.0075 129.773L68.5846 128.956L67.1797 130.334L68.0075 129.773ZM73.2005 132.276L73.4988 131.322L73.488 131.318L73.4771 131.315L73.2005 132.276ZM78.3353 132.552L78.0901 131.583L78.0791 131.586L78.3353 132.552ZM82.6668 129.908L81.965 129.195L81.965 129.195L82.6668 129.908ZM74.2929 124.573L75.2053 124.982L73.5742 123.878L74.2929 124.573ZM72.595 126.696L71.9593 125.924L71.9448 125.936L71.9308 125.948L72.595 126.696ZM70.1901 127.706L70.1524 128.705L70.1785 128.706L70.2047 128.706L70.1901 127.706ZM67.7764 126.574L67.0722 127.284L67.08 127.292L67.088 127.299L67.7764 126.574ZM66.2958 124.331L67.0724 123.701L65.3503 124.657L66.2958 124.331ZM68.1724 125.608L68.4858 124.658L68.4562 124.648L68.426 124.64L68.1724 125.608ZM70.2097 125.999L70.2687 125.001L70.255 125L70.2097 125.999ZM72.3378 125.773L72.5975 126.738L72.3378 125.773ZM65.2104 124.118L65.9736 124.764L64.7293 123.241L65.2104 124.118ZM62.0584 126.073L61.7674 125.117L61.759 125.119L61.7506 125.122L62.0584 126.073ZM58.4269 126.048L58.7898 125.117L58.7734 125.11L58.7569 125.104L58.4269 126.048ZM55.6925 123.691L54.8292 124.195L54.835 124.205L54.8411 124.215L55.6925 123.691ZM54.6287 120.131L55.5708 119.795L53.6288 120.147L54.6287 120.131ZM56.4714 122.896L57.145 122.157L57.1309 122.144L57.1163 122.132L56.4714 122.896ZM59.0297 124.566L58.6418 125.488L58.6613 125.496L58.6811 125.503L59.0297 124.566ZM61.9872 124.985L61.9884 123.985L61.9683 123.985L61.9482 123.985L61.9872 124.985ZM58.6102 70.6954C59.338 69.3275 60.4558 68.3244 62.0151 67.68L61.2512 65.8316C59.2905 66.642 57.8044 67.9521 56.8446 69.7559L58.6102 70.6954ZM62.0151 67.68C63.6227 67.0156 65.2239 66.7964 66.8352 67.0052L67.0923 65.0218C65.1162 64.7657 63.1638 65.0412 61.2512 65.8316L62.0151 67.68ZM66.8128 67.0021C68.3607 67.2385 69.8144 67.8911 71.1822 68.9906L72.4353 67.4319C70.8181 66.1319 69.0418 65.3193 67.1147 65.025L66.8128 67.0021ZM71.1822 68.9906C72.5087 70.0569 73.3199 71.3466 73.6602 72.8788L75.6126 72.4451C75.1678 70.4426 74.0939 68.7651 72.4353 67.4319L71.1822 68.9906ZM75.4812 72.1268C74.4434 70.4885 73.1619 69.0864 71.6392 67.9258L70.4269 69.5165C71.7579 70.5309 72.8787 71.7559 73.7916 73.1971L75.4812 72.1268ZM71.6659 67.9469C70.1907 66.7412 68.6396 65.9734 67.0148 65.7112L66.6962 67.6857C67.9002 67.88 69.134 68.4606 70.4002 69.4955L71.6659 67.9469ZM66.9832 65.7067C65.3445 65.4956 63.6031 65.7969 61.7831 66.5388L62.5381 68.3908C64.1258 67.7436 65.5144 67.534 66.7277 67.6903L66.9832 65.7067ZM61.7879 66.5368C60.0321 67.242 58.4537 68.2247 57.0579 69.4829L58.397 70.9684C59.6167 69.8689 60.9937 69.011 62.5333 68.3927L61.7879 66.5368ZM81.2277 80.1875C81.926 79.3651 82.8692 78.7217 84.0963 78.275L83.4122 76.3957C81.9054 76.9441 80.6561 77.7707 79.7032 78.8931L81.2277 80.1875ZM84.0798 78.2809C85.3156 77.8554 86.4025 77.8433 87.3832 78.1767L88.0271 76.2832C86.5627 75.7853 85.0156 75.8434 83.4287 76.3898L84.0798 78.2809ZM87.3808 78.1759C88.3189 78.4976 89.1551 79.1506 89.8787 80.2185L91.5344 79.0966C90.6123 77.7357 89.4475 76.7703 88.0295 76.284L87.3808 78.1759ZM89.8787 80.2185C90.6099 81.2976 90.9686 82.3715 91.0028 83.4529L93.0018 83.3897C92.9541 81.8816 92.449 80.4464 91.5344 79.0966L89.8787 80.2185ZM92.9338 83.0575C92.4181 81.7371 91.6202 80.6267 90.5437 79.7451L89.2765 81.2924C90.0791 81.9497 90.6761 82.7744 91.0709 83.7851L92.9338 83.0575ZM90.5824 79.7785C89.619 78.9035 88.5895 78.2535 87.4918 77.8564L86.8115 79.7372C87.6249 80.0314 88.4344 80.5294 89.2378 81.259L90.5824 79.7785ZM87.4489 77.842C86.3489 77.4995 85.141 77.3735 83.8389 77.4429L83.9454 79.4401C85.0548 79.3809 86.0199 79.4918 86.8544 79.7516L87.4489 77.842ZM83.8269 77.4436C82.4933 77.5309 81.2021 77.9514 79.9608 78.677L80.9701 80.4036C81.9753 79.816 82.9686 79.504 83.9575 79.4394L83.8269 77.4436ZM71.4741 77.5401C71.8877 76.9477 72.5204 76.4225 73.431 75.99L72.5729 74.1834C71.4193 74.7314 70.4869 75.4603 69.8341 76.3953L71.4741 77.5401ZM73.4579 75.9767C74.3319 75.5289 75.0677 75.4495 75.7156 75.6194L76.2229 73.6848C75.0019 73.3646 73.7596 73.575 72.546 74.1967L73.4579 75.9767ZM75.7156 75.6194C76.3077 75.7746 76.8909 76.1899 77.4407 77.021L79.1087 75.9175C78.3644 74.7924 77.4106 73.9962 76.2229 73.6848L75.7156 75.6194ZM77.4576 77.0458C78.0388 77.8695 78.3325 78.6375 78.4022 79.3567L80.3929 79.1639C80.2829 78.0289 79.8281 76.9362 79.0918 75.8927L77.4576 77.0458ZM80.3082 78.8472C79.8449 77.8259 79.1639 77.0018 78.26 76.412L77.167 78.0869C77.7249 78.4509 78.1666 78.9674 78.4869 79.6734L80.3082 78.8472ZM78.26 76.412C77.4553 75.8868 76.636 75.5051 75.8028 75.2866L75.2956 77.2212C75.8863 77.3761 76.5098 77.658 77.167 78.0869L78.26 76.412ZM75.8028 75.2866C74.9311 75.0581 74.0088 74.9808 73.0429 75.044L73.1735 77.0397C73.9495 76.989 74.6544 77.0531 75.2956 77.2212L75.8028 75.2866ZM73.0429 75.044C71.9658 75.1145 70.9681 75.4984 70.0633 76.1609L71.2449 77.7745C71.8704 77.3165 72.5087 77.0832 73.1734 77.0397L73.0429 75.044ZM59.8737 77.6777C60.1522 76.766 60.6814 75.9422 61.4969 75.2027L60.1536 73.721C59.0976 74.6784 58.3549 75.8037 57.961 77.0935L59.8737 77.6777ZM61.4894 75.2095C62.3495 74.4454 63.2051 74.0731 64.0665 74.0055L63.9101 72.0117C62.538 72.1193 61.2849 72.7159 60.1611 73.7143L61.4894 75.2095ZM64.0665 74.0055C64.9113 73.9393 65.7858 74.1839 66.7167 74.8361L67.8643 73.1981C66.6257 72.3304 65.2988 71.9027 63.9101 72.0117L64.0665 74.0055ZM66.7167 74.8361C67.6797 75.5108 68.3105 76.2655 68.6698 77.088L70.5026 76.2874C69.9704 75.0691 69.0707 74.0434 67.8643 73.1981L66.7167 74.8361ZM70.311 75.9987C69.41 75.0509 68.3472 74.4017 67.1306 74.0827L66.6234 76.0173C67.4535 76.235 68.1969 76.6777 68.8614 77.3767L70.311 75.9987ZM67.1743 74.0952C66.1067 73.7628 65.0479 73.6158 64.0036 73.6674L64.1024 75.665C64.8889 75.6261 65.7128 75.7349 66.5797 76.0048L67.1743 74.0952ZM63.9877 73.6684C62.9834 73.734 61.9546 74.003 60.9065 74.4518L61.6939 76.2903C62.5743 75.9133 63.3807 75.7123 64.1183 75.6641L63.9877 73.6684ZM60.8811 74.4632C59.7884 74.9676 58.8658 75.7577 58.109 76.7969L59.7257 77.9743C60.3065 77.1767 60.9725 76.6238 61.7193 76.279L60.8811 74.4632ZM96.3923 85.1946C97.4696 86.2099 98.1388 87.5272 98.3786 89.2037L100.358 88.9204C100.061 86.8419 99.2034 85.0957 97.764 83.7391L96.3923 85.1946ZM98.38 89.2132C98.6331 90.8683 98.4381 92.4027 97.8075 93.8414L99.6394 94.6442C100.429 92.8413 100.665 90.9219 100.357 88.9109L98.38 89.2132ZM97.7988 93.862C97.2219 95.2626 96.2539 96.4752 94.8561 97.4988L96.0377 99.1125C97.7002 97.895 98.9167 96.3991 99.6481 94.6237L97.7988 93.862ZM94.8687 97.4897C93.518 98.4468 92.1051 98.8724 90.603 98.8071L90.516 100.805C92.4932 100.891 94.3386 100.317 96.025 99.1216L94.8687 97.4897ZM90.8439 100.765C92.6623 100.225 94.3118 99.3832 95.7855 98.2388L94.5588 96.6591C93.2856 97.6478 91.8601 98.3771 90.275 98.8474L90.8439 100.765ZM95.769 98.2513C97.2941 97.1167 98.4031 95.8098 99.0163 94.3136L97.1657 93.5551C96.723 94.6353 95.8861 95.6715 94.5753 96.6466L95.769 98.2513ZM99.0035 94.3435C99.6718 92.8532 99.8304 91.1471 99.5501 89.2731L97.5721 89.5689C97.81 91.1596 97.6552 92.4624 97.1786 93.5251L99.0035 94.3435ZM99.5546 89.3068C99.3384 87.4262 98.8103 85.659 97.9686 84.0118L96.1877 84.9219C96.9174 86.3498 97.378 87.8854 97.5676 89.5352L99.5546 89.3068ZM90.9283 85.097C91.4259 85.7471 91.742 86.599 91.8273 87.7082L93.8214 87.5547C93.7126 86.1402 93.294 84.8972 92.5164 83.8814L90.9283 85.097ZM91.8284 87.7205C91.9207 88.7534 91.7238 89.5842 91.2905 90.2684L92.9802 91.3384C93.6833 90.2282 93.9457 88.9443 93.8204 87.5425L91.8284 87.7205ZM91.3217 90.2221C90.8688 90.856 90.1635 91.3675 89.1203 91.7149L89.7523 93.6125C91.1059 93.1617 92.2 92.4331 92.949 91.3848L91.3217 90.2221ZM89.15 91.7055C88.1086 92.0167 87.1923 92.0402 86.3747 91.8258L85.8674 93.7604C87.0966 94.0827 88.3905 94.0199 89.7226 93.6218L89.15 91.7055ZM86.2133 93.7888C87.4408 93.6752 88.5378 93.2917 89.4679 92.6106L88.2863 90.9969C87.6862 91.4364 86.9458 91.7124 86.0289 91.7973L86.2133 93.7888ZM89.4914 92.5928C90.3358 91.9354 91.0341 91.2157 91.568 90.4281L89.9125 89.3059C89.5158 89.8911 88.972 90.4626 88.2628 91.0147L89.4914 92.5928ZM91.5777 90.4135C92.1194 89.5835 92.5212 88.65 92.7905 87.6226L90.8559 87.1153C90.6353 87.9568 90.3151 88.6886 89.9028 89.3205L91.5777 90.4135ZM92.7905 87.6226C93.0869 86.4924 93.0408 85.3396 92.6756 84.1871L90.7691 84.7913C91.0284 85.6097 91.0496 86.3767 90.8559 87.1153L92.7905 87.6226ZM54.562 89.7213C53.6817 88.972 53.0461 87.9607 52.6749 86.6392L50.7494 87.1799C51.2145 88.8358 52.0466 90.2067 53.2657 91.2443L54.562 89.7213ZM52.6749 86.6392C52.3072 85.3297 52.3463 84.1541 52.7476 83.0753L50.873 82.378C50.3073 83.899 50.281 85.5119 50.7494 87.1799L52.6749 86.6392ZM52.7464 83.0785C53.1292 82.0599 53.8543 81.197 54.996 80.4967L53.9503 78.7919C52.4852 79.6906 51.4351 80.8826 50.8742 82.3749L52.7464 83.0785ZM55.0133 80.4858C56.1855 79.7335 57.3369 79.3958 58.4843 79.4183L58.5234 77.4187C56.9267 77.3874 55.391 77.8669 53.933 78.8027L55.0133 80.4858ZM58.1783 77.473C56.7855 77.9525 55.5745 78.7003 54.5598 79.7167L55.9753 81.1297C56.7666 80.337 57.7131 79.7483 58.8294 79.364L58.1783 77.473ZM54.5598 79.7167C53.5678 80.7105 52.8424 81.8088 52.4167 83.0138L54.3025 83.68C54.6148 82.7959 55.1614 81.945 55.9753 81.1297L54.5598 79.7167ZM52.4333 82.9703C51.9688 84.1128 51.7744 85.3981 51.8188 86.8032L53.8178 86.74C53.7804 85.5557 53.9468 84.5578 54.286 83.7235L52.4333 82.9703ZM51.8188 86.8032C51.8654 88.2737 52.2818 89.6723 53.0506 90.9875L54.7772 89.9782C54.1672 88.9345 53.8532 87.859 53.8178 86.74L51.8188 86.8032ZM72.7072 89.5676C72.725 90.1712 72.5586 90.8697 72.1372 91.6793L73.9112 92.6027C74.4481 91.5712 74.7367 90.5343 74.7063 89.5084L72.7072 89.5676ZM72.1214 91.7109C71.7805 92.4265 71.3519 92.833 70.8646 93.0445L71.661 94.8791C72.6763 94.4384 73.422 93.631 73.927 92.5711L72.1214 91.7109ZM70.907 93.0272C70.4486 93.2018 69.856 93.2132 69.0602 92.9254L68.3799 94.8061C69.4951 95.2095 70.5977 95.2851 71.6186 94.8963L70.907 93.0272ZM69.0602 92.9254C68.2264 92.6237 67.6259 92.2234 67.2081 91.7531L65.7129 93.0814C66.3967 93.8511 67.3025 94.4164 68.3799 94.8061L69.0602 92.9254ZM65.9442 93.2737C66.8146 93.7984 67.7557 94.0253 68.7376 93.9029L68.49 91.9182C67.997 91.9797 67.5026 91.8778 66.9768 91.5609L65.9442 93.2737ZM68.7376 93.9029C69.5555 93.8009 70.3296 93.604 71.0559 93.3079L70.3009 91.4559C69.7493 91.6808 69.147 91.8363 68.4901 91.9182L68.7376 93.9029ZM71.0422 93.3134C71.7123 93.0517 72.3683 92.6869 73.0108 92.2286L71.8493 90.6004C71.3218 90.9767 70.8101 91.2569 70.3146 91.4504L71.0422 93.3134ZM73.0421 92.2053C73.8139 91.608 74.3485 90.8061 74.6585 89.8449L72.755 89.2311C72.5559 89.8484 72.2394 90.2975 71.818 90.6237L73.0421 92.2053ZM72.905 94.9133C73.6672 94.1497 74.6419 93.603 75.8643 93.2901L75.3682 91.3526C73.8377 91.7444 72.5331 92.4548 71.4895 93.5003L72.905 94.9133ZM76.4796 91.8167C76.0493 91.0805 75.8255 90.3888 75.7712 89.7352L73.7781 89.9008C73.861 90.9001 74.1983 91.8772 74.7529 92.826L76.4796 91.8167ZM73.8667 90.2371C74.3608 91.3075 75.0909 92.2153 76.0415 92.955L77.2698 91.3767C76.5616 90.8255 76.0376 90.1681 75.6825 89.3989L73.8667 90.2371ZM76.7794 93.1582C77.8468 93.025 78.7851 93.1601 79.6219 93.5354L80.4403 91.7105C79.2346 91.1698 77.9226 91.0001 76.5319 91.1735L76.7794 93.1582ZM79.6333 93.5404C80.0718 93.7305 80.5035 94.0152 80.927 94.4101L82.2908 92.9472C81.7208 92.4157 81.1006 91.9967 80.4289 91.7054L79.6333 93.5404ZM81.6742 94.6765C82.3389 94.633 82.9953 94.5065 83.6419 94.2992L83.0312 92.3947C82.5355 92.5536 82.0402 92.6483 81.5437 92.6808L81.6742 94.6765ZM83.6049 94.3103C84.3252 94.1096 85.0124 93.7933 85.665 93.3689L84.5748 91.6922C84.0809 92.0134 83.5791 92.2413 83.0682 92.3836L83.6049 94.3103ZM84.3115 91.9419C83.7582 92.7018 83.0145 93.284 82.0506 93.6854L82.8196 95.5317C84.0978 94.9993 85.144 94.1962 85.9283 93.1192L84.3115 91.9419ZM81.6372 95.2114C82.6695 96.5777 83.0998 97.9978 82.9876 99.506L84.982 99.6544C85.1336 97.6175 84.5307 95.7233 83.2329 94.0057L81.6372 95.2114ZM84.949 99.315C84.649 98.2242 84.172 97.2529 83.5085 96.417L81.9419 97.6603C82.4223 98.2656 82.785 98.9886 83.0206 99.8453L84.949 99.315ZM83.5504 96.4738C82.9858 95.649 82.3355 94.926 81.5983 94.3097L80.3156 95.8442C80.9046 96.3366 81.4331 96.9213 81.9 97.6035L83.5504 96.4738ZM80.7512 94.0984C80.1917 94.216 79.6632 94.2033 79.1525 94.0694L78.6452 96.004C79.4694 96.2201 80.313 96.2342 81.1627 96.0556L80.7512 94.0984ZM79.1525 94.0694C78.4474 93.8845 77.7859 93.4638 77.1699 92.7377L75.6449 94.0317C76.482 95.0183 77.4815 95.6989 78.6452 96.004L79.1525 94.0694ZM76.4664 92.3865C75.6732 92.3396 74.8806 92.4001 74.0911 92.5661L74.5025 94.5233C75.1222 94.393 75.7367 94.3468 76.3484 94.383L76.4664 92.3865ZM74.1489 92.5557C73.3469 92.6756 72.552 92.9289 71.766 93.3045L72.6284 95.1091C73.256 94.8091 73.8608 94.621 74.4447 94.5337L74.1489 92.5557ZM52.0628 98.7893C51.4989 98.4213 50.9802 97.8492 50.5278 97.0183L48.7713 97.9749C49.3461 99.0302 50.0719 99.8782 50.9698 100.464L52.0628 98.7893ZM50.555 97.0722C50.1729 96.257 50.1137 95.5882 50.2632 95.0182L48.3286 94.5109C48.0347 95.6318 48.2113 96.7843 48.7441 97.921L50.555 97.0722ZM50.2752 94.967C50.3894 94.4144 50.7249 93.9023 51.4178 93.437L50.3028 91.7766C49.2642 92.4741 48.5567 93.4005 48.3166 94.5621L50.2752 94.967ZM51.4411 93.4209C52.2099 92.8725 52.9325 92.5876 53.6146 92.5092L53.3862 90.5223C52.303 90.6468 51.2657 91.0893 50.2796 91.7927L51.4411 93.4209ZM53.0942 90.6019C52.116 91.0368 51.3372 91.6965 50.8016 92.585L52.5144 93.6175C52.8205 93.1098 53.2699 92.7126 53.9066 92.4295L53.0942 90.6019ZM50.7745 92.6328C50.359 93.4166 50.0677 94.2048 49.9157 94.9959L51.8798 95.3733C51.9888 94.8061 52.2044 94.2055 52.5415 93.5697L50.7745 92.6328ZM49.9304 94.9309C49.7273 95.7057 49.6454 96.5441 49.6719 97.4375L51.671 97.3783C51.6492 96.6422 51.7182 95.9983 51.8651 95.4382L49.9304 94.9309ZM49.6725 97.4543C49.7189 98.4515 50.0855 99.3789 50.714 100.224L52.3186 99.0298C51.8922 98.4566 51.6956 97.9048 51.6704 97.3614L49.6725 97.4543ZM84.7751 101.405C85.5212 101.345 86.3125 101.519 87.1685 101.989L88.1299 100.235C86.99 99.61 85.8119 99.3153 84.6148 99.4116L84.7751 101.405ZM87.1768 101.993C88.0591 102.466 88.586 103.042 88.8605 103.698L90.7054 102.926C90.2197 101.765 89.3241 100.875 88.1216 100.23L87.1768 101.993ZM88.8605 103.698C89.1292 104.34 89.1521 105.079 88.8381 105.978L90.7261 106.638C91.1734 105.358 91.1969 104.1 90.7054 102.926L88.8605 103.698ZM88.8257 106.015C88.53 106.984 88.0911 107.712 87.5355 108.247L88.9218 109.688C89.7651 108.877 90.3618 107.833 90.7385 106.6L88.8257 106.015ZM89.1314 109.398C89.6185 108.376 89.845 107.326 89.7756 106.264L87.7798 106.395C87.8243 107.074 87.6848 107.784 87.3259 108.537L89.1314 109.398ZM89.7756 106.264C89.7127 105.304 89.5249 104.4 89.2044 103.558L87.3353 104.27C87.578 104.907 87.7287 105.613 87.7798 106.395L89.7756 106.264ZM89.1912 103.525C88.8506 102.718 88.3511 101.945 87.7115 101.203L86.1975 102.51C86.725 103.121 87.1025 103.719 87.3485 104.302L89.1912 103.525ZM87.7115 101.203C86.9962 100.375 86.0794 99.7947 84.9943 99.4542L84.3956 101.363C85.1561 101.601 85.7455 101.987 86.1975 102.51L87.7115 101.203ZM65.9114 112.228C65.9254 111.753 66.0401 111.219 66.2809 110.617L64.4242 109.874C64.1137 110.649 63.9345 111.416 63.9122 112.169L65.9114 112.228ZM66.2836 110.61C66.5243 109.996 66.8455 109.514 67.2359 109.141L65.8541 107.695C65.2293 108.292 64.7555 109.028 64.4215 109.88L66.2836 110.61ZM67.1541 107.625C66.6096 107.207 66.1734 106.556 65.896 105.582L63.9724 106.129C64.3387 107.416 64.9763 108.474 65.9359 109.211L67.1541 107.625ZM65.9049 105.615C65.6601 104.627 65.6581 103.773 65.8531 103.029L63.9185 102.522C63.6236 103.647 63.6538 104.846 63.9636 106.096L65.9049 105.615ZM63.8916 102.883C64.0179 104.053 64.38 105.105 65.0007 106.012L66.6511 104.883C66.2403 104.282 65.9757 103.554 65.8801 102.668L63.8916 102.883ZM65.0426 106.069C65.6709 106.861 66.3732 107.526 67.1523 108.054L68.2746 106.399C67.6809 105.996 67.1248 105.475 66.6092 104.826L65.0426 106.069ZM67.054 107.978C67.2841 108.18 67.5435 108.346 67.8232 108.483L68.7001 106.685C68.5582 106.616 68.4522 106.544 68.3729 106.475L67.054 107.978ZM68.369 108.578C69.1117 108.498 69.9456 108.705 70.9013 109.328L71.9944 107.653C70.7573 106.846 69.4671 106.448 68.1543 106.59L68.369 108.578ZM71.5131 109.489C72.0033 109.457 72.5201 109.382 73.0617 109.268L72.6503 107.311C72.1853 107.409 71.7634 107.468 71.3826 107.493L71.5131 109.489ZM72.2753 107.475C72.0589 107.63 71.8047 107.766 71.5067 107.879L72.2184 109.748C72.66 109.58 73.0681 109.366 73.4367 109.103L72.2753 107.475ZM71.3161 109.651C71.4757 109.755 71.6415 109.898 71.8109 110.088L73.3061 108.76C73.0348 108.455 72.7367 108.19 72.4091 107.976L71.3161 109.651ZM73.0159 108.535C72.5755 108.308 72.1185 108.132 71.6457 108.008L71.1385 109.943C71.4666 110.029 71.7872 110.152 72.1011 110.313L73.0159 108.535ZM71.0552 108.034C70.2118 108.336 69.3847 108.411 68.5581 108.273L68.2281 110.245C69.4059 110.443 70.5782 110.329 71.729 109.917L71.0552 108.034ZM68.6467 108.292C68.3557 108.216 68.0789 108.272 67.9696 108.295L68.3811 110.252C68.4024 110.248 68.3964 110.25 68.3706 110.252C68.3567 110.253 68.3306 110.254 68.2955 110.252C68.2613 110.25 68.2066 110.244 68.1395 110.226L68.6467 108.292ZM67.7979 108.347C67.0808 108.64 66.3751 109.033 65.6806 109.521L66.8298 111.158C67.4176 110.745 67.992 110.428 68.5528 110.199L67.7979 108.347ZM65.6432 109.548C64.8872 110.134 64.336 110.91 63.9784 111.839L65.8452 112.557C66.0856 111.932 66.43 111.468 66.8673 111.13L65.6432 109.548ZM55.9651 106.992C56.3157 106.724 56.693 106.503 57.0989 106.329L56.3115 104.491C55.7531 104.73 55.2319 105.034 54.7495 105.404L55.9651 106.992ZM57.0352 104.466C56.1601 104.16 55.362 103.569 54.6474 102.63L53.0556 103.84C53.9678 105.04 55.0721 105.898 56.3752 106.354L57.0352 104.466ZM54.6603 102.647C53.9884 101.723 53.6442 100.791 53.5821 99.8415L51.5863 99.972C51.6761 101.345 52.1768 102.632 53.0427 103.823L54.6603 102.647ZM51.6829 100.34C52.268 101.557 53.0639 102.561 54.0787 103.324L55.2807 101.726C54.5477 101.174 53.9466 100.433 53.4855 99.4735L51.6829 100.34ZM54.091 103.333C55.0928 104.063 56.131 104.581 57.2053 104.863L57.7126 102.928C56.918 102.72 56.1034 102.325 55.2684 101.716L54.091 103.333ZM57.2053 104.863C58.3196 105.155 59.4825 105.216 60.6847 105.056L60.4217 103.074C59.456 103.202 58.5561 103.149 57.7126 102.928L57.2053 104.863ZM60.6695 105.058C61.9723 104.906 63.1867 104.429 64.3032 103.649L63.1577 102.01C62.2946 102.613 61.3908 102.96 60.4369 103.072L60.6695 105.058ZM62.8993 102.273C62.3236 103.134 61.4858 103.793 60.3317 104.238L61.0505 106.104C62.5413 105.53 63.7296 104.629 64.5615 103.385L62.8993 102.273ZM60.4375 106.138C60.712 106.21 60.9802 106.317 61.2434 106.461L62.2047 104.708C61.8026 104.487 61.3822 104.318 60.9447 104.204L60.4375 106.138ZM61.189 106.429C61.8562 106.852 62.3791 107.527 62.7198 108.55L64.6173 107.918C64.1597 106.544 63.3863 105.453 62.259 104.74L61.189 106.429ZM62.7198 108.55C63.0732 109.612 63.1332 110.544 62.954 111.373L64.9088 111.796C65.1773 110.555 65.062 109.254 64.6173 107.918L62.7198 108.55ZM64.9204 111.437C64.7413 110.239 64.2977 109.168 63.5801 108.246L62.002 109.475C62.494 110.107 62.8106 110.851 62.9424 111.732L64.9204 111.437ZM63.5801 108.246C62.9227 107.402 62.203 106.703 61.4154 106.169L60.2932 107.825C60.8785 108.222 61.4499 108.765 62.002 109.475L63.5801 108.246ZM61.3576 106.133C60.509 105.639 59.5399 105.283 58.464 105.052L58.0451 107.008C58.9503 107.202 59.7144 107.49 60.351 107.861L61.3576 106.133ZM58.4619 105.052C57.335 104.813 56.1937 104.884 55.0552 105.244L55.6594 107.151C56.4918 106.887 57.2819 106.846 58.0472 107.008L58.4619 105.052ZM87.5266 110.746C88.2689 111.487 88.7829 112.476 89.0355 113.766L90.9982 113.382C90.6816 111.764 90.0065 110.396 88.9396 109.331L87.5266 110.746ZM89.0383 113.779C89.2963 115.007 89.1823 116.057 88.7501 116.977L90.56 117.828C91.2027 116.461 91.3299 114.959 90.9955 113.368L89.0383 113.779ZM88.7501 116.977C88.3234 117.884 87.5788 118.632 86.4333 119.203L87.3255 120.993C88.8059 120.255 89.9117 119.206 90.56 117.828L88.7501 116.977ZM86.4145 119.213C85.2967 119.8 84.2371 120.01 83.2139 119.898L82.9956 121.886C84.4685 122.048 85.9253 121.729 87.3444 120.984L86.4145 119.213ZM83.3424 121.863C84.7131 121.528 85.8955 120.91 86.8582 119.995L85.4803 118.545C84.7962 119.196 83.9355 119.659 82.867 119.921L83.3424 121.863ZM86.8492 120.003C87.8081 119.114 88.5494 118.138 89.047 117.071L87.2344 116.226C86.8627 117.023 86.2897 117.795 85.4894 118.537L86.8492 120.003ZM89.0434 117.079C89.5315 116.054 89.8019 114.895 89.8772 113.62L87.8807 113.502C87.8177 114.568 87.5959 115.467 87.2379 116.218L89.0434 117.079ZM89.8772 113.62C89.9563 112.281 89.7081 110.954 89.1536 109.648L87.3126 110.429C87.7577 111.478 87.94 112.498 87.8807 113.502L89.8772 113.62ZM44.1623 115.933C42.7188 115.35 41.5863 114.322 40.7588 112.792L38.9995 113.743C40.0294 115.648 41.5026 117.015 43.4131 117.787L44.1623 115.933ZM40.7662 112.806C39.9246 111.188 39.5622 109.57 39.6507 107.935L37.6536 107.827C37.5441 109.849 37.9996 111.822 38.9921 113.729L40.7662 112.806ZM39.6517 107.911C39.7003 106.27 40.2072 104.724 41.1976 103.255L39.5392 102.137C38.3504 103.9 37.7131 105.811 37.6526 107.851L39.6517 107.911ZM41.2019 103.248C42.1866 101.763 43.4327 100.818 44.9497 100.354L44.3646 98.4413C42.3659 99.0527 40.7528 100.306 39.535 102.143L41.2019 103.248ZM44.051 98.6022C42.4722 99.8053 41.1588 101.235 40.1166 102.889L41.8086 103.955C42.721 102.507 43.8707 101.254 45.2633 100.193L44.051 98.6022ZM40.1295 102.869C39.0321 104.522 38.4132 106.199 38.3552 107.888L40.354 107.957C40.3964 106.724 40.8496 105.4 41.7957 103.975L40.1295 102.869ZM38.3567 107.857C38.2473 109.532 38.6891 111.263 39.601 113.03L41.3783 112.113C40.5874 110.58 40.2725 109.212 40.3525 107.988L38.3567 107.857ZM39.6088 113.045C40.5234 114.746 41.6892 116.262 43.1033 117.589L44.4721 116.131C43.2149 114.951 42.182 113.607 41.3704 112.098L39.6088 113.045ZM47.2586 108.569C47.2932 107.861 47.519 107.113 47.9772 106.318L46.2443 105.32C45.6552 106.342 45.3136 107.395 45.2609 108.471L47.2586 108.569ZM47.9623 106.343C48.4512 105.549 48.9806 105.142 49.521 104.973L48.9258 103.064C47.809 103.412 46.9299 104.205 46.2592 105.295L47.9623 106.343ZM49.5624 104.96C50.1083 104.763 50.743 104.783 51.5333 105.144L52.3645 103.325C51.2013 102.793 50.019 102.669 48.8844 103.078L49.5624 104.96ZM51.5772 105.162C52.4828 105.525 53.0951 105.988 53.4871 106.515L55.0917 105.321C54.4288 104.43 53.4808 103.77 52.3205 103.306L51.5772 105.162ZM54.8359 105.08C53.9467 104.5 52.9748 104.208 51.9412 104.239L52.0005 106.238C52.5964 106.22 53.1702 106.382 53.7429 106.755L54.8359 105.08ZM51.9412 104.239C51.0517 104.265 50.219 104.391 49.4501 104.624L50.032 106.538C50.6066 106.363 51.2605 106.26 52.0005 106.238L51.9412 104.239ZM49.4501 104.624C48.6609 104.864 47.8835 105.26 47.1181 105.79L48.2568 107.434C48.886 106.998 49.4776 106.707 50.032 106.538L49.4501 104.624ZM47.1128 105.794C46.2879 106.373 45.6969 107.181 45.3243 108.167L47.1952 108.874C47.4439 108.216 47.8047 107.752 48.262 107.43L47.1128 105.794ZM53.4174 118.58C52.3931 118.899 51.2478 118.895 49.9484 118.512L49.3828 120.43C50.9968 120.906 52.5511 120.945 54.0126 120.489L53.4174 118.58ZM49.9494 118.512C48.7202 118.149 47.8261 117.527 47.2028 116.67L45.5851 117.846C46.4997 119.104 47.7867 119.958 49.3819 120.43L49.9494 118.512ZM47.2028 116.67C46.5745 115.806 46.2442 114.755 46.2492 113.466L44.2492 113.459C44.2428 115.116 44.6757 116.595 45.5851 117.846L47.2028 116.67ZM46.2483 113.504C46.3041 112.147 46.6454 111.055 47.2288 110.183L45.5666 109.07C44.7424 110.302 44.318 111.767 44.25 113.422L46.2483 113.504ZM45.4304 109.373C45.0627 110.775 45.0492 112.161 45.406 113.513L47.3397 113.003C47.0763 112.004 47.0794 110.97 47.365 109.88L45.4304 109.373ZM45.406 113.513C45.7413 114.784 46.2392 115.899 46.9169 116.838L48.5383 115.667C48.0299 114.963 47.6246 114.082 47.3397 113.003L45.406 113.513ZM46.9135 116.833C47.6227 117.827 48.5441 118.676 49.6587 119.384L50.7315 117.696C49.808 117.109 49.0844 116.432 48.5417 115.672L46.9135 116.833ZM49.6901 119.403C50.8747 120.096 52.2088 120.467 53.6697 120.533L53.7604 118.535C52.5895 118.482 51.577 118.19 50.7002 117.677L49.6901 119.403ZM81.2098 121.585C81.2104 122.285 81.0049 123.046 80.5361 123.881L82.28 124.86C82.8818 123.788 83.2108 122.692 83.2098 121.584L81.2098 121.585ZM80.521 123.909C80.1378 124.645 79.6559 125.061 79.0899 125.265L79.7679 127.146C80.8825 126.744 81.72 125.937 82.2951 124.832L80.521 123.909ZM79.0514 125.279C78.4623 125.519 77.7937 125.537 76.9874 125.249L76.3144 127.132C77.5082 127.558 78.6916 127.586 79.8064 127.131L79.0514 125.279ZM77.0275 125.264C76.1574 124.91 75.5118 124.455 75.0499 123.92L73.5359 125.227C74.2412 126.044 75.1676 126.667 76.2743 127.117L77.0275 125.264ZM73.7896 125.437C74.6789 125.955 75.6244 126.213 76.6086 126.167L76.5157 124.169C75.9594 124.195 75.392 124.056 74.7962 123.709L73.7896 125.437ZM76.6449 126.165C77.5478 126.09 78.3914 125.915 79.1691 125.632L78.4849 123.752C77.8957 123.967 77.2294 124.109 76.4794 124.172L76.6449 126.165ZM79.1691 125.632C79.97 125.34 80.7152 124.902 81.4043 124.328L80.1249 122.791C79.5974 123.23 79.0509 123.546 78.4849 123.752L79.1691 125.632ZM81.3685 124.357C82.1824 123.74 82.7731 122.923 83.1452 121.938L81.2744 121.231C81.0252 121.89 80.6524 122.39 80.1607 122.762L81.3685 124.357ZM85.0383 125.135C84.8826 126.836 84.1673 128.33 82.8443 129.643L84.253 131.063C85.8869 129.441 86.8286 127.518 87.0299 125.318L85.0383 125.135ZM82.8443 129.643C81.4848 130.992 79.9641 131.857 78.2747 132.269L78.7484 134.212C80.8183 133.708 82.6557 132.648 84.253 131.063L82.8443 129.643ZM78.2656 132.271C76.5153 132.715 74.7455 132.663 72.9356 132.101L72.3429 134.011C74.491 134.678 76.6361 134.748 78.7574 134.21L78.2656 132.271ZM72.9143 132.095C71.1349 131.586 69.7929 130.625 68.8354 129.212L67.1797 130.334C68.4165 132.159 70.1623 133.388 72.3642 134.018L72.9143 132.095ZM67.4304 130.59C69.125 131.787 70.9574 132.671 72.9239 133.237L73.4771 131.315C71.7293 130.812 70.0996 130.027 68.5846 128.956L67.4304 130.59ZM72.9022 133.231C74.9276 133.864 76.8356 133.985 78.5915 133.519L78.0791 131.586C76.7685 131.933 75.2533 131.87 73.4988 131.322L72.9022 133.231ZM78.5805 133.522C80.2742 133.094 81.8684 132.098 83.3686 130.62L81.965 129.195C80.6439 130.497 79.3505 131.264 78.0901 131.583L78.5805 133.522ZM83.3686 130.62C84.8584 129.152 86.0492 127.498 86.9349 125.661L85.1333 124.792C84.3504 126.417 83.2962 127.884 81.965 129.195L83.3686 130.62ZM73.3804 124.164C73.1122 124.762 72.6542 125.352 71.9593 125.924L73.2306 127.468C74.1127 126.742 74.7866 125.916 75.2053 124.982L73.3804 124.164ZM71.9308 125.948C71.3361 126.477 70.7578 126.698 70.1756 126.706L70.2047 128.706C71.341 128.69 72.3659 128.237 73.2591 127.444L71.9308 125.948ZM70.2279 126.707C69.6773 126.686 69.0936 126.445 68.4648 125.849L67.088 127.299C67.9823 128.148 69.0078 128.662 70.1524 128.705L70.2279 126.707ZM68.4805 125.864C67.849 125.238 67.4517 124.616 67.2414 124.006L65.3503 124.657C65.6799 125.614 66.2696 126.488 67.0722 127.284L68.4805 125.864ZM65.5193 124.961C66.1698 125.763 66.9689 126.326 67.9187 126.575L68.426 124.64C67.9519 124.516 67.5 124.228 67.0724 123.701L65.5193 124.961ZM67.8589 126.557C68.6357 126.814 69.4051 126.964 70.1644 126.998L70.255 125C69.6984 124.975 69.1096 124.864 68.4858 124.658L67.8589 126.557ZM70.1507 126.998C70.9661 127.046 71.783 126.957 72.5975 126.738L72.0781 124.807C71.4599 124.973 70.8581 125.036 70.2687 125.001L70.1507 126.998ZM72.5975 126.738C73.5115 126.492 74.3165 125.987 75.0116 125.269L73.5742 123.878C73.095 124.373 72.5966 124.667 72.0781 124.807L72.5975 126.738ZM64.4472 123.472C63.8364 124.193 62.9638 124.753 61.7674 125.117L62.3493 127.03C63.8401 126.577 65.0689 125.833 65.9736 124.764L64.4472 123.472ZM61.7506 125.122C60.6396 125.481 59.6685 125.459 58.7898 125.117L58.0641 126.98C59.4292 127.512 60.879 127.506 62.3662 127.025L61.7506 125.122ZM58.7569 125.104C57.928 124.815 57.1838 124.205 56.5439 123.166L54.8411 124.215C55.669 125.559 56.7477 126.521 58.097 126.992L58.7569 125.104ZM56.5558 123.186C55.9404 122.133 55.6451 121.113 55.6286 120.114L53.6288 120.147C53.6519 121.536 54.0657 122.889 54.8292 124.195L56.5558 123.186ZM53.6866 120.466C54.148 121.762 54.8549 122.841 55.8266 123.661L57.1163 122.132C56.4525 121.572 55.9309 120.807 55.5708 119.795L53.6866 120.466ZM55.7979 123.636C56.6783 124.438 57.6259 125.06 58.6418 125.488L59.4176 123.644C58.6346 123.315 57.8767 122.824 57.145 122.157L55.7979 123.636ZM58.6811 125.503C59.6932 125.88 60.8144 126.031 62.0262 125.984L61.9482 123.985C60.9498 124.024 60.0993 123.897 59.3783 123.629L58.6811 125.503ZM61.9859 125.985C63.2646 125.986 64.5036 125.646 65.6916 124.994L64.7293 123.241C63.8064 123.748 62.8966 123.986 61.9884 123.985L61.9859 125.985Z" fill="black"/>
</svg>
